%TF.GenerationSoftware,KiCad,Pcbnew,7.0.9*%
%TF.CreationDate,2024-01-04T23:56:04+08:00*%
%TF.ProjectId,stm32_timer_app,73746d33-325f-4746-996d-65725f617070,rev?*%
%TF.SameCoordinates,PX6a6e180PY6b00940*%
%TF.FileFunction,Paste,Top*%
%TF.FilePolarity,Positive*%
%FSLAX46Y46*%
G04 Gerber Fmt 4.6, Leading zero omitted, Abs format (unit mm)*
G04 Created by KiCad (PCBNEW 7.0.9) date 2024-01-04 23:56:04*
%MOMM*%
%LPD*%
G01*
G04 APERTURE LIST*
G04 Aperture macros list*
%AMRoundRect*
0 Rectangle with rounded corners*
0 $1 Rounding radius*
0 $2 $3 $4 $5 $6 $7 $8 $9 X,Y pos of 4 corners*
0 Add a 4 corners polygon primitive as box body*
4,1,4,$2,$3,$4,$5,$6,$7,$8,$9,$2,$3,0*
0 Add four circle primitives for the rounded corners*
1,1,$1+$1,$2,$3*
1,1,$1+$1,$4,$5*
1,1,$1+$1,$6,$7*
1,1,$1+$1,$8,$9*
0 Add four rect primitives between the rounded corners*
20,1,$1+$1,$2,$3,$4,$5,0*
20,1,$1+$1,$4,$5,$6,$7,0*
20,1,$1+$1,$6,$7,$8,$9,0*
20,1,$1+$1,$8,$9,$2,$3,0*%
G04 Aperture macros list end*
%ADD10R,0.711200X0.254000*%
%ADD11R,0.254000X0.711200*%
%ADD12R,1.600200X1.117600*%
%ADD13R,1.117600X1.600200*%
%ADD14R,0.711200X0.660400*%
%ADD15R,0.660400X0.711200*%
%ADD16R,1.111200X0.600800*%
%ADD17R,2.600000X3.500000*%
%ADD18RoundRect,0.200000X0.200000X0.275000X-0.200000X0.275000X-0.200000X-0.275000X0.200000X-0.275000X0*%
%ADD19R,1.100000X1.000000*%
%ADD20R,1.000000X1.100000*%
%ADD21R,1.000000X1.700000*%
%ADD22RoundRect,0.200000X-0.200000X-0.275000X0.200000X-0.275000X0.200000X0.275000X-0.200000X0.275000X0*%
%ADD23R,1.380000X0.450000*%
%ADD24R,2.100000X1.475000*%
%ADD25R,1.900000X1.375000*%
%ADD26RoundRect,0.200000X-0.275000X0.200000X-0.275000X-0.200000X0.275000X-0.200000X0.275000X0.200000X0*%
%ADD27R,1.780000X1.520000*%
%ADD28R,2.100000X1.400000*%
G04 APERTURE END LIST*
D10*
%TO.C,U8*%
X62556100Y38550000D03*
X62556100Y38050001D03*
X62556100Y37550000D03*
X62556100Y37050000D03*
X62556100Y36549999D03*
X62556100Y36050000D03*
D11*
X63300000Y35306100D03*
X63799999Y35306100D03*
X64300000Y35306100D03*
X64800000Y35306100D03*
X65300001Y35306100D03*
X65800000Y35306100D03*
D10*
X66543900Y36050000D03*
X66543900Y36549999D03*
X66543900Y37050000D03*
X66543900Y37550000D03*
X66543900Y38050001D03*
X66543900Y38550000D03*
D11*
X65800000Y39293900D03*
X65300001Y39293900D03*
X64800000Y39293900D03*
X64300000Y39293900D03*
X63799999Y39293900D03*
X63300000Y39293900D03*
%TD*%
D12*
%TO.C,R20*%
X19700000Y35644000D03*
X19700000Y32850000D03*
%TD*%
%TO.C,R9*%
X19750000Y27353000D03*
X19750000Y30147000D03*
%TD*%
D13*
%TO.C,R8*%
X26056000Y26600000D03*
X28850000Y26600000D03*
%TD*%
D12*
%TO.C,R7*%
X25000000Y52150000D03*
X25000000Y49356000D03*
%TD*%
%TO.C,R2*%
X25400000Y43506000D03*
X25400000Y46300000D03*
%TD*%
D14*
%TO.C,LED4*%
X15900000Y35550000D03*
X15900000Y34102200D03*
%TD*%
%TO.C,LED3*%
X15900000Y29348900D03*
X15900000Y27901100D03*
%TD*%
D15*
%TO.C,LED2*%
X56352200Y22400000D03*
X57800000Y22400000D03*
%TD*%
D14*
%TO.C,LED1*%
X134600000Y27050000D03*
X134600000Y25602200D03*
%TD*%
D16*
%TO.C,CR2*%
X96025000Y11650000D03*
X99475000Y11650000D03*
%TD*%
D17*
%TO.C,U6*%
X90700000Y12950000D03*
X61300000Y12950000D03*
%TD*%
D18*
%TO.C,R11*%
X128000000Y22700000D03*
X126350000Y22700000D03*
%TD*%
D19*
%TO.C,C21*%
X96450000Y8850000D03*
X98150000Y8850000D03*
%TD*%
%TO.C,C19*%
X106750000Y26050000D03*
X105050000Y26050000D03*
%TD*%
D20*
%TO.C,C3*%
X103050000Y73200000D03*
X103050000Y71500000D03*
%TD*%
%TO.C,C9*%
X93750000Y73200000D03*
X93750000Y71500000D03*
%TD*%
D21*
%TO.C,S4*%
X103900000Y19650000D03*
X103900000Y13350000D03*
X107700000Y19650000D03*
X107700000Y13350000D03*
%TD*%
D19*
%TO.C,C24*%
X65400000Y42600000D03*
X67100000Y42600000D03*
%TD*%
D22*
%TO.C,R10*%
X113500000Y39400000D03*
X115150000Y39400000D03*
%TD*%
D19*
%TO.C,C22*%
X60150000Y38550000D03*
X58450000Y38550000D03*
%TD*%
D20*
%TO.C,C25*%
X68950000Y36400000D03*
X68950000Y38100000D03*
%TD*%
D23*
%TO.C,J7*%
X46760000Y59462500D03*
X46760000Y60112500D03*
X46760000Y60762500D03*
X46760000Y61412500D03*
X46760000Y62062500D03*
D24*
X46400000Y63225000D03*
D25*
X44100000Y61700000D03*
X44100000Y59825000D03*
D24*
X46400000Y58300000D03*
%TD*%
D19*
%TO.C,C23*%
X63950000Y32250000D03*
X65650000Y32250000D03*
%TD*%
D18*
%TO.C,R23*%
X106750000Y22600000D03*
X105100000Y22600000D03*
%TD*%
D26*
%TO.C,R24*%
X101450000Y14975000D03*
X101450000Y13325000D03*
%TD*%
D20*
%TO.C,C4*%
X100000000Y73200000D03*
X100000000Y71500000D03*
%TD*%
D18*
%TO.C,R22*%
X110950000Y31600000D03*
X109300000Y31600000D03*
%TD*%
D20*
%TO.C,C15*%
X101450000Y18050000D03*
X101450000Y19750000D03*
%TD*%
D27*
%TO.C,U1*%
X25220000Y29100000D03*
X27760000Y29100000D03*
X30300000Y29100000D03*
X30300000Y38110000D03*
X27760000Y38110000D03*
X25220000Y38110000D03*
%TD*%
D14*
%TO.C,LED6*%
X125150000Y27050000D03*
X125150000Y25602200D03*
%TD*%
D28*
%TO.C,S5*%
X111287500Y22900000D03*
X120387500Y22900000D03*
X111287500Y18400000D03*
X120387500Y18400000D03*
%TD*%
D22*
%TO.C,R4*%
X52150000Y22400000D03*
X53800000Y22400000D03*
%TD*%
%TO.C,R6*%
X129950000Y29600000D03*
X131600000Y29600000D03*
%TD*%
D28*
%TO.C,S6*%
X120420500Y10000000D03*
X111320500Y10000000D03*
X120420500Y14500000D03*
X111320500Y14500000D03*
%TD*%
D19*
%TO.C,C18*%
X110950000Y34900000D03*
X109250000Y34900000D03*
%TD*%
D20*
%TO.C,C6*%
X96850000Y73200000D03*
X96850000Y71500000D03*
%TD*%
D18*
%TO.C,R14*%
X135900000Y30100000D03*
X134250000Y30100000D03*
%TD*%
D14*
%TO.C,LED5*%
X130150000Y27050000D03*
X130150000Y25602200D03*
%TD*%
M02*
