M48
; DRILL file {KiCad 7.0.9} date Thu Jan  4 23:56:01 2024
; FORMAT={-:-/ absolute / inch / decimal}
; #@! TF.CreationDate,2024-01-04T23:56:01+08:00
; #@! TF.GenerationSoftware,Kicad,Pcbnew,7.0.9
; #@! TF.FileFunction,Plated,1,2,PTH
FMAT,2
INCH
; #@! TA.AperFunction,Plated,PTH,ViaDrill
T1C0.0157
; #@! TA.AperFunction,Plated,PTH,ComponentDrill
T2C0.0276
; #@! TA.AperFunction,Plated,PTH,ComponentDrill
T3C0.0315
; #@! TA.AperFunction,Plated,PTH,ComponentDrill
T4C0.0360
; #@! TA.AperFunction,Plated,PTH,ComponentDrill
T5C0.0394
; #@! TA.AperFunction,Plated,PTH,ComponentDrill
T6C0.0410
; #@! TA.AperFunction,Plated,PTH,ComponentDrill
T7C0.0433
; #@! TA.AperFunction,Plated,PTH,ComponentDrill
T8C0.0450
; #@! TA.AperFunction,Plated,PTH,ComponentDrill
T9C0.0500
; #@! TA.AperFunction,Plated,PTH,ComponentDrill
T10C0.0512
; #@! TA.AperFunction,Plated,PTH,ComponentDrill
T11C0.0787
; #@! TA.AperFunction,Plated,PTH,ComponentDrill
T12C0.1181
; #@! TA.AperFunction,Plated,PTH,ComponentDrill
T13C0.1260
%
G90
G05
T1
X1.9035Y2.6634
X1.9488Y2.3917
X1.9508Y2.4429
X1.9843Y0.9035
X2.2953Y2.4823
X2.3012Y1.6732
X2.3478Y2.4665
X2.4587Y2.2175
X2.5118Y2.2746
X2.6019Y2.6698
X2.7628Y2.1969
X2.7677Y2.2894
X2.7874Y2.3878
X2.8376Y2.2103
X2.8445Y1.7205
X2.8455Y2.3533
X2.8533Y2.6668
X2.8602Y2.065
X2.8661Y2.2441
X2.874Y2.3996
X2.8927Y2.5428
X2.8942Y2.6895
X2.9006Y2.2944
X2.9119Y2.3538
X2.9575Y2.2779
X2.9714Y2.24
X2.9744Y2.622
X2.9744Y2.2008
X3.0276Y2.0945
X3.3976Y1.8543
X3.4685Y1.6634
X3.5591Y2.7264
X3.6122Y2.4567
X3.6181Y2.6969
X3.7096Y2.6811
X3.7096Y2.4213
X3.9508Y1.2303
X3.9921Y0.6476
X4.2028Y1.4213
X4.2992Y1.4793
X4.4055Y1.5768
X4.5039Y0.4055
X4.5915Y1.5404
T3
X5.0236Y0.6039
X5.0236Y0.5039
X5.0236Y0.4039
X5.1295Y1.5335
X5.1295Y1.3366
X5.2495Y0.6039
X5.2495Y0.5039
X5.2495Y0.4039
T4
X0.7362Y1.9939
X0.7362Y1.5805
T5
X1.6614Y2.6909
X1.813Y2.126
X2.0605Y2.1428
X2.0605Y2.0428
X2.0605Y1.9428
X2.0605Y1.8428
X2.0605Y1.7428
X2.0605Y1.6428
X2.0605Y1.5428
X2.065Y2.8366
X2.2165Y0.2047
X3.4173Y2.626
X3.4823Y2.4291
X3.5453Y2.6024
X3.5531Y2.0965
X3.8307Y0.8661
X3.8445Y0.5768
X4.3169Y0.1594
X4.9626Y1.2283
X5.0295Y2.5488
X5.0295Y2.4506
X5.0295Y2.3506
X5.0295Y2.2506
X5.0295Y2.1506
X5.0295Y2.0488
X5.0295Y1.9503
X5.0295Y1.8519
X5.2323Y0.9114
X5.4744Y0.1575
X5.6831Y0.1575
X6.1476Y1.6161
X6.1634Y0.9862
X6.1634Y0.8504
T6
X0.4055Y1.9949
X0.4055Y0.8649
T7
X1.7047Y1.8929
X1.7047Y1.7929
X1.7047Y1.6929
X2.0768Y1.3913
X2.0768Y1.2913
X2.5075Y2.8524
X2.6075Y2.8524
X2.7075Y2.8524
X2.8075Y2.8524
X2.9075Y2.8524
X3.1705Y2.8396
X3.2705Y2.8396
X3.3705Y2.8396
X3.4705Y2.8396
X5.4783Y1.3708
X5.4783Y1.2724
X5.4783Y1.174
X5.4783Y0.689
X5.4783Y0.5906
X5.4783Y0.4921
X6.0492Y1.3708
X6.0492Y1.174
X6.0492Y0.689
X6.0492Y0.4921
T8
X0.8102Y0.9244
X0.9102Y0.9244
X1.0102Y0.9244
X1.1102Y0.9244
X2.063Y0.7591
X2.063Y0.6591
X2.063Y0.5591
X2.063Y0.4591
T9
X1.1447Y1.9232
X1.1447Y1.8228
X1.1447Y1.7224
T10
X0.4843Y2.5591
X0.4843Y2.3622
X1.0906Y2.5827
X1.0906Y2.3858
T12
X5.9193Y2.5999
X5.9193Y1.8007
T13
X0.1496Y2.8465
X0.1496Y0.1496
X1.4134Y2.8465
X1.4134Y0.1496
X1.7913Y2.8465
X1.7913Y0.1496
X2.043Y2.5999
X2.043Y1.0803
X4.7185Y2.5999
X4.7185Y1.0803
X6.2008Y2.8465
X6.2008Y0.1496
T2
G00X1.748Y2.5477
M15
G01X1.7244Y2.5477
M16
G05
G00X1.748Y2.2367
M15
G01X1.7244Y2.2367
M16
G05
T11
G00X5.7894Y1.4968
M15
G01X5.7579Y1.4968
M16
G05
G00X5.7894Y1.048
M15
G01X5.7579Y1.048
M16
G05
G00X5.7894Y0.815
M15
G01X5.7579Y0.815
M16
G05
G00X5.7894Y0.3661
M15
G01X5.7579Y0.3661
M16
G05
T0
M30
