%TF.GenerationSoftware,KiCad,Pcbnew,7.0.9*%
%TF.CreationDate,2024-01-04T23:56:04+08:00*%
%TF.ProjectId,stm32_timer_app,73746d33-325f-4746-996d-65725f617070,rev?*%
%TF.SameCoordinates,PX6a6e180PY6b00940*%
%TF.FileFunction,Soldermask,Top*%
%TF.FilePolarity,Negative*%
%FSLAX46Y46*%
G04 Gerber Fmt 4.6, Leading zero omitted, Abs format (unit mm)*
G04 Created by KiCad (PCBNEW 7.0.9) date 2024-01-04 23:56:04*
%MOMM*%
%LPD*%
G01*
G04 APERTURE LIST*
G04 Aperture macros list*
%AMRoundRect*
0 Rectangle with rounded corners*
0 $1 Rounding radius*
0 $2 $3 $4 $5 $6 $7 $8 $9 X,Y pos of 4 corners*
0 Add a 4 corners polygon primitive as box body*
4,1,4,$2,$3,$4,$5,$6,$7,$8,$9,$2,$3,0*
0 Add four circle primitives for the rounded corners*
1,1,$1+$1,$2,$3*
1,1,$1+$1,$4,$5*
1,1,$1+$1,$6,$7*
1,1,$1+$1,$8,$9*
0 Add four rect primitives between the rounded corners*
20,1,$1+$1,$2,$3,$4,$5,0*
20,1,$1+$1,$4,$5,$6,$7,0*
20,1,$1+$1,$6,$7,$8,$9,0*
20,1,$1+$1,$8,$9,$2,$3,0*%
G04 Aperture macros list end*
%ADD10R,0.711200X0.254000*%
%ADD11R,0.254000X0.711200*%
%ADD12R,1.600200X1.117600*%
%ADD13R,1.117600X1.600200*%
%ADD14R,1.549400X1.549400*%
%ADD15C,1.549400*%
%ADD16R,0.711200X0.660400*%
%ADD17R,0.660400X0.711200*%
%ADD18R,1.650000X1.650000*%
%ADD19C,1.650000*%
%ADD20R,1.651000X1.651000*%
%ADD21C,1.651000*%
%ADD22R,1.111200X0.600800*%
%ADD23R,1.422400X1.422400*%
%ADD24C,1.422400*%
%ADD25RoundRect,0.102000X-1.300000X1.750000X-1.300000X-1.750000X1.300000X-1.750000X1.300000X1.750000X0*%
%ADD26C,6.400000*%
%ADD27C,1.000000*%
%ADD28C,2.000000*%
%ADD29RoundRect,0.200000X0.200000X0.275000X-0.200000X0.275000X-0.200000X-0.275000X0.200000X-0.275000X0*%
%ADD30RoundRect,0.102000X-0.550000X-0.500000X0.550000X-0.500000X0.550000X0.500000X-0.550000X0.500000X0*%
%ADD31RoundRect,0.102000X0.550000X0.500000X-0.550000X0.500000X-0.550000X-0.500000X0.550000X-0.500000X0*%
%ADD32RoundRect,0.102000X-0.500000X0.550000X-0.500000X-0.550000X0.500000X-0.550000X0.500000X0.550000X0*%
%ADD33RoundRect,0.102000X-0.500000X0.850000X-0.500000X-0.850000X0.500000X-0.850000X0.500000X0.850000X0*%
%ADD34RoundRect,0.200000X-0.200000X-0.275000X0.200000X-0.275000X0.200000X0.275000X-0.200000X0.275000X0*%
%ADD35C,1.512000*%
%ADD36RoundRect,0.102000X0.825000X-0.825000X0.825000X0.825000X-0.825000X0.825000X-0.825000X-0.825000X0*%
%ADD37C,1.854000*%
%ADD38C,3.704000*%
%ADD39RoundRect,0.102000X0.754000X-0.754000X0.754000X0.754000X-0.754000X0.754000X-0.754000X-0.754000X0*%
%ADD40C,1.712000*%
%ADD41RoundRect,0.102000X0.500000X-0.550000X0.500000X0.550000X-0.500000X0.550000X-0.500000X-0.550000X0*%
%ADD42RoundRect,0.076200X-0.690000X-0.225000X0.690000X-0.225000X0.690000X0.225000X-0.690000X0.225000X0*%
%ADD43O,2.568400X1.360400*%
%ADD44RoundRect,0.076200X-1.050000X-0.737500X1.050000X-0.737500X1.050000X0.737500X-1.050000X0.737500X0*%
%ADD45RoundRect,0.076200X-0.950000X-0.687500X0.950000X-0.687500X0.950000X0.687500X-0.950000X0.687500X0*%
%ADD46C,2.154000*%
%ADD47RoundRect,0.102000X-0.825000X0.825000X-0.825000X-0.825000X0.825000X-0.825000X0.825000X0.825000X0*%
%ADD48O,6.204000X3.204000*%
%ADD49RoundRect,0.200000X-0.275000X0.200000X-0.275000X-0.200000X0.275000X-0.200000X0.275000X0.200000X0*%
%ADD50RoundRect,0.102000X0.890000X0.760000X-0.890000X0.760000X-0.890000X-0.760000X0.890000X-0.760000X0*%
%ADD51RoundRect,0.102000X-1.050000X-0.700000X1.050000X-0.700000X1.050000X0.700000X-1.050000X0.700000X0*%
%ADD52C,2.114000*%
%ADD53RoundRect,0.102000X-0.955000X0.955000X-0.955000X-0.955000X0.955000X-0.955000X0.955000X0.955000X0*%
%ADD54RoundRect,0.102000X0.654000X-0.654000X0.654000X0.654000X-0.654000X0.654000X-0.654000X-0.654000X0*%
%ADD55RoundRect,0.102000X1.050000X0.700000X-1.050000X0.700000X-1.050000X-0.700000X1.050000X-0.700000X0*%
%ADD56C,4.204000*%
G04 APERTURE END LIST*
D10*
%TO.C,U8*%
X62556100Y38550000D03*
X62556100Y38050001D03*
X62556100Y37550000D03*
X62556100Y37050000D03*
X62556100Y36549999D03*
X62556100Y36050000D03*
D11*
X63300000Y35306100D03*
X63799999Y35306100D03*
X64300000Y35306100D03*
X64800000Y35306100D03*
X65300001Y35306100D03*
X65800000Y35306100D03*
D10*
X66543900Y36050000D03*
X66543900Y36549999D03*
X66543900Y37050000D03*
X66543900Y37550000D03*
X66543900Y38050001D03*
X66543900Y38550000D03*
D11*
X65800000Y39293900D03*
X65300001Y39293900D03*
X64800000Y39293900D03*
X64300000Y39293900D03*
X63799999Y39293900D03*
X63300000Y39293900D03*
%TD*%
D12*
%TO.C,R20*%
X19700000Y35644000D03*
X19700000Y32850000D03*
%TD*%
%TO.C,R9*%
X19750000Y27353000D03*
X19750000Y30147000D03*
%TD*%
D13*
%TO.C,R8*%
X26056000Y26600000D03*
X28850000Y26600000D03*
%TD*%
D12*
%TO.C,R7*%
X25000000Y52150000D03*
X25000000Y49356000D03*
%TD*%
D14*
%TO.C,R5*%
X10300000Y21968100D03*
D15*
X10300000Y50670100D03*
%TD*%
D12*
%TO.C,R2*%
X25400000Y43506000D03*
X25400000Y46300000D03*
%TD*%
D16*
%TO.C,LED4*%
X15900000Y35550000D03*
X15900000Y34102200D03*
%TD*%
%TO.C,LED3*%
X15900000Y29348900D03*
X15900000Y27901100D03*
%TD*%
D17*
%TO.C,LED2*%
X56352200Y22400000D03*
X57800000Y22400000D03*
%TD*%
D16*
%TO.C,LED1*%
X134600000Y27050000D03*
X134600000Y25602200D03*
%TD*%
D18*
%TO.C,J9*%
X73850000Y72450000D03*
D19*
X71310000Y72450000D03*
X68770000Y72450000D03*
X66230000Y72450000D03*
X63690000Y72450000D03*
%TD*%
D18*
%TO.C,J8*%
X80530000Y72125000D03*
D19*
X83070000Y72125000D03*
X85610000Y72125000D03*
X88150000Y72125000D03*
%TD*%
D20*
%TO.C,J2*%
X20580000Y23479400D03*
D21*
X23120000Y23479400D03*
X25660000Y23479400D03*
X28200000Y23479400D03*
%TD*%
D22*
%TO.C,CR2*%
X96025000Y11650000D03*
X99475000Y11650000D03*
%TD*%
D23*
%TO.C,C5*%
X18700000Y50645600D03*
D24*
X18700000Y40145600D03*
%TD*%
D25*
%TO.C,U6*%
X90700000Y12950000D03*
X61300000Y12950000D03*
%TD*%
D26*
%TO.C,REF\u002A\u002A*%
X157500000Y3800000D03*
%TD*%
D27*
%TO.C,REF\u002A\u002A*%
X64150000Y48750000D03*
%TD*%
D28*
%TO.C,TP1*%
X52450000Y72050000D03*
%TD*%
D29*
%TO.C,R11*%
X128000000Y22700000D03*
X126350000Y22700000D03*
%TD*%
D30*
%TO.C,C21*%
X96450000Y8850000D03*
X98150000Y8850000D03*
%TD*%
D28*
%TO.C,TP13*%
X90250000Y53250000D03*
%TD*%
%TO.C,TP2*%
X42200000Y68350000D03*
%TD*%
D31*
%TO.C,C19*%
X106750000Y26050000D03*
X105050000Y26050000D03*
%TD*%
D32*
%TO.C,C3*%
X103050000Y73200000D03*
X103050000Y71500000D03*
%TD*%
%TO.C,C9*%
X93750000Y73200000D03*
X93750000Y71500000D03*
%TD*%
D33*
%TO.C,S4*%
X103900000Y19650000D03*
X103900000Y13350000D03*
X107700000Y19650000D03*
X107700000Y13350000D03*
%TD*%
D30*
%TO.C,C24*%
X65400000Y42600000D03*
X67100000Y42600000D03*
%TD*%
D28*
%TO.C,TP15*%
X90050000Y66100000D03*
%TD*%
D34*
%TO.C,R10*%
X113500000Y39400000D03*
X115150000Y39400000D03*
%TD*%
D31*
%TO.C,C22*%
X60150000Y38550000D03*
X58450000Y38550000D03*
%TD*%
D35*
%TO.C,LS1*%
X130288500Y33950000D03*
X130288500Y38950000D03*
%TD*%
D28*
%TO.C,TP16*%
X86800000Y66700000D03*
%TD*%
%TO.C,TP4*%
X97300000Y22000000D03*
%TD*%
D36*
%TO.C,J10*%
X43300000Y43000000D03*
D37*
X43300000Y45540000D03*
X43300000Y48080000D03*
%TD*%
D38*
%TO.C,DS1*%
X51892000Y66038500D03*
X51892000Y27438500D03*
X119850000Y66038500D03*
X119850000Y27438500D03*
D39*
X52336800Y39186300D03*
D40*
X52336800Y41726300D03*
X52336800Y44266300D03*
X52336800Y46806300D03*
X52336800Y49346300D03*
X52336800Y51886300D03*
X52336800Y54426300D03*
%TD*%
D26*
%TO.C,REF\u002A\u002A*%
X45500000Y3800000D03*
%TD*%
D28*
%TO.C,TP21*%
X156550000Y21600000D03*
%TD*%
D41*
%TO.C,C25*%
X68950000Y36400000D03*
X68950000Y38100000D03*
%TD*%
D42*
%TO.C,J7*%
X46760000Y59462500D03*
X46760000Y60112500D03*
X46760000Y60762500D03*
X46760000Y61412500D03*
X46760000Y62062500D03*
D43*
X44100000Y64712500D03*
D44*
X46400000Y63225000D03*
D45*
X44100000Y61700000D03*
X44100000Y59825000D03*
D44*
X46400000Y58300000D03*
D43*
X44100000Y56812500D03*
%TD*%
D46*
%TO.C,J1*%
X27700000Y60600000D03*
X27700000Y65600000D03*
%TD*%
D47*
%TO.C,MT2*%
X153650000Y34818500D03*
D37*
X153650000Y29818500D03*
X139150000Y34818500D03*
X139150000Y29818500D03*
X139150000Y32318500D03*
D48*
X146650000Y38018500D03*
X146650000Y26618500D03*
%TD*%
D30*
%TO.C,C23*%
X63950000Y32250000D03*
X65650000Y32250000D03*
%TD*%
D29*
%TO.C,R23*%
X106750000Y22600000D03*
X105100000Y22600000D03*
%TD*%
D49*
%TO.C,R24*%
X101450000Y14975000D03*
X101450000Y13325000D03*
%TD*%
D28*
%TO.C,TP5*%
X126050000Y31200000D03*
%TD*%
D32*
%TO.C,C4*%
X100000000Y73200000D03*
X100000000Y71500000D03*
%TD*%
D29*
%TO.C,R22*%
X110950000Y31600000D03*
X109300000Y31600000D03*
%TD*%
D27*
%TO.C,REF\u002A\u002A*%
X104300000Y5345250D03*
%TD*%
D41*
%TO.C,C15*%
X101450000Y18050000D03*
X101450000Y19750000D03*
%TD*%
D26*
%TO.C,REF\u002A\u002A*%
X35900000Y3800000D03*
%TD*%
D50*
%TO.C,U1*%
X25220000Y29100000D03*
X27760000Y29100000D03*
X30300000Y29100000D03*
X30300000Y38110000D03*
X27760000Y38110000D03*
X25220000Y38110000D03*
%TD*%
D27*
%TO.C,REF\u002A\u002A*%
X79350000Y67500000D03*
%TD*%
D26*
%TO.C,REF\u002A\u002A*%
X35900000Y72300000D03*
%TD*%
D16*
%TO.C,LED6*%
X125150000Y27050000D03*
X125150000Y25602200D03*
%TD*%
D28*
%TO.C,TP17*%
X97650000Y14650000D03*
%TD*%
%TO.C,TP22*%
X156150000Y41050000D03*
%TD*%
D26*
%TO.C,REF\u002A\u002A*%
X3800000Y72300000D03*
%TD*%
D51*
%TO.C,S5*%
X111287500Y22900000D03*
X120387500Y22900000D03*
X111287500Y18400000D03*
X120387500Y18400000D03*
%TD*%
D28*
%TO.C,TP8*%
X132900000Y23150000D03*
%TD*%
%TO.C,TP19*%
X139050000Y4000000D03*
%TD*%
D20*
%TO.C,J4*%
X52400000Y11660000D03*
D21*
X52400000Y14200000D03*
X52400000Y16740000D03*
X52400000Y19280000D03*
%TD*%
D52*
%TO.C,D1*%
X29075000Y43750000D03*
X29075000Y46300000D03*
D53*
X29075000Y48850000D03*
%TD*%
D46*
%TO.C,J3*%
X12300000Y65000000D03*
X12300000Y60000000D03*
%TD*%
D28*
%TO.C,TP11*%
X109650000Y4050000D03*
%TD*%
D34*
%TO.C,R4*%
X52150000Y22400000D03*
X53800000Y22400000D03*
%TD*%
D28*
%TO.C,TP14*%
X88450000Y61700000D03*
%TD*%
D47*
%TO.C,J5*%
X52750000Y35340000D03*
D37*
X52750000Y32800000D03*
%TD*%
D34*
%TO.C,R6*%
X129950000Y29600000D03*
X131600000Y29600000D03*
%TD*%
D26*
%TO.C,REF\u002A\u002A*%
X3800000Y3800000D03*
%TD*%
D28*
%TO.C,TP25*%
X46050000Y54000000D03*
%TD*%
D26*
%TO.C,REF\u002A\u002A*%
X45500000Y72300000D03*
%TD*%
D47*
%TO.C,MT1*%
X153650000Y17500000D03*
D37*
X153650000Y12500000D03*
X139150000Y17500000D03*
X139150000Y12500000D03*
X139150000Y15000000D03*
D48*
X146650000Y20700000D03*
X146650000Y9300000D03*
%TD*%
D27*
%TO.C,REF\u002A\u002A*%
X82250000Y66100000D03*
%TD*%
D54*
%TO.C,S7*%
X133337500Y12800000D03*
D35*
X133337500Y10260000D03*
X133337500Y15340000D03*
%TD*%
D28*
%TO.C,TP20*%
X144350000Y4000000D03*
%TD*%
D55*
%TO.C,S6*%
X120420500Y10000000D03*
X111320500Y10000000D03*
X120420500Y14500000D03*
X111320500Y14500000D03*
%TD*%
D28*
%TO.C,TP12*%
X56300000Y5200000D03*
%TD*%
D54*
%TO.C,S8*%
X127600000Y12800000D03*
D35*
X127600000Y10260000D03*
X127600000Y15340000D03*
%TD*%
D31*
%TO.C,C18*%
X110950000Y34900000D03*
X109250000Y34900000D03*
%TD*%
D32*
%TO.C,C6*%
X96850000Y73200000D03*
X96850000Y71500000D03*
%TD*%
D29*
%TO.C,R14*%
X135900000Y30100000D03*
X134250000Y30100000D03*
%TD*%
D56*
%TO.C,U3*%
X150350000Y66038500D03*
X150350000Y45738500D03*
D40*
X127750000Y47038500D03*
D39*
X127750000Y49538500D03*
D40*
X127750000Y52038500D03*
X127750000Y54624100D03*
X127750000Y57164100D03*
X127750000Y59704100D03*
X127750000Y62244100D03*
X127750000Y64738500D03*
%TD*%
D27*
%TO.C,REF\u002A\u002A*%
X62900000Y50850000D03*
%TD*%
%TO.C,REF\u002A\u002A*%
X69050000Y50600000D03*
%TD*%
D26*
%TO.C,REF\u002A\u002A*%
X157500000Y72300000D03*
%TD*%
D16*
%TO.C,LED5*%
X130150000Y27050000D03*
X130150000Y25602200D03*
%TD*%
D28*
%TO.C,TP23*%
X156550000Y25050000D03*
%TD*%
M02*
