%TF.GenerationSoftware,KiCad,Pcbnew,7.0.9*%
%TF.CreationDate,2024-01-04T23:56:05+08:00*%
%TF.ProjectId,stm32_timer_app,73746d33-325f-4746-996d-65725f617070,rev?*%
%TF.SameCoordinates,PX6a6e180PY6b00940*%
%TF.FileFunction,Soldermask,Bot*%
%TF.FilePolarity,Negative*%
%FSLAX46Y46*%
G04 Gerber Fmt 4.6, Leading zero omitted, Abs format (unit mm)*
G04 Created by KiCad (PCBNEW 7.0.9) date 2024-01-04 23:56:05*
%MOMM*%
%LPD*%
G01*
G04 APERTURE LIST*
G04 Aperture macros list*
%AMRoundRect*
0 Rectangle with rounded corners*
0 $1 Rounding radius*
0 $2 $3 $4 $5 $6 $7 $8 $9 X,Y pos of 4 corners*
0 Add a 4 corners polygon primitive as box body*
4,1,4,$2,$3,$4,$5,$6,$7,$8,$9,$2,$3,0*
0 Add four circle primitives for the rounded corners*
1,1,$1+$1,$2,$3*
1,1,$1+$1,$4,$5*
1,1,$1+$1,$6,$7*
1,1,$1+$1,$8,$9*
0 Add four rect primitives between the rounded corners*
20,1,$1+$1,$2,$3,$4,$5,0*
20,1,$1+$1,$4,$5,$6,$7,0*
20,1,$1+$1,$6,$7,$8,$9,0*
20,1,$1+$1,$8,$9,$2,$3,0*%
G04 Aperture macros list end*
%ADD10RoundRect,0.211200X0.670800X-0.030800X0.670800X0.030800X-0.670800X0.030800X-0.670800X-0.030800X0*%
%ADD11RoundRect,0.211200X0.030800X0.670800X-0.030800X0.670800X-0.030800X-0.670800X0.030800X-0.670800X0*%
%ADD12R,1.549400X1.549400*%
%ADD13C,1.549400*%
%ADD14R,1.650000X1.650000*%
%ADD15C,1.650000*%
%ADD16R,1.651000X1.651000*%
%ADD17C,1.651000*%
%ADD18R,1.422400X1.422400*%
%ADD19C,1.422400*%
%ADD20C,6.400000*%
%ADD21C,2.000000*%
%ADD22C,1.512000*%
%ADD23RoundRect,0.102000X0.825000X-0.825000X0.825000X0.825000X-0.825000X0.825000X-0.825000X-0.825000X0*%
%ADD24C,1.854000*%
%ADD25C,3.704000*%
%ADD26RoundRect,0.102000X0.754000X-0.754000X0.754000X0.754000X-0.754000X0.754000X-0.754000X-0.754000X0*%
%ADD27C,1.712000*%
%ADD28O,2.568400X1.360400*%
%ADD29C,2.154000*%
%ADD30RoundRect,0.102000X-0.825000X0.825000X-0.825000X-0.825000X0.825000X-0.825000X0.825000X0.825000X0*%
%ADD31O,6.204000X3.204000*%
%ADD32C,2.114000*%
%ADD33RoundRect,0.102000X-0.955000X0.955000X-0.955000X-0.955000X0.955000X-0.955000X0.955000X0.955000X0*%
%ADD34RoundRect,0.102000X0.654000X-0.654000X0.654000X0.654000X-0.654000X0.654000X-0.654000X-0.654000X0*%
%ADD35C,4.204000*%
%ADD36RoundRect,0.200000X-0.200000X-0.275000X0.200000X-0.275000X0.200000X0.275000X-0.200000X0.275000X0*%
%ADD37RoundRect,0.102000X-0.500000X0.550000X-0.500000X-0.550000X0.500000X-0.550000X0.500000X0.550000X0*%
%ADD38RoundRect,0.102000X-0.950000X-1.200000X0.950000X-1.200000X0.950000X1.200000X-0.950000X1.200000X0*%
%ADD39RoundRect,0.200000X-0.275000X0.200000X-0.275000X-0.200000X0.275000X-0.200000X0.275000X0.200000X0*%
%ADD40RoundRect,0.200000X0.200000X0.275000X-0.200000X0.275000X-0.200000X-0.275000X0.200000X-0.275000X0*%
%ADD41RoundRect,0.102000X0.550000X0.500000X-0.550000X0.500000X-0.550000X-0.500000X0.550000X-0.500000X0*%
%ADD42C,1.000000*%
%ADD43RoundRect,0.102000X-0.950000X0.550000X-0.950000X-0.550000X0.950000X-0.550000X0.950000X0.550000X0*%
%ADD44RoundRect,0.102000X0.500000X-0.550000X0.500000X0.550000X-0.500000X0.550000X-0.500000X-0.550000X0*%
%ADD45RoundRect,0.148900X0.538100X-0.288100X0.538100X0.288100X-0.538100X0.288100X-0.538100X-0.288100X0*%
%ADD46RoundRect,0.102000X-0.660400X-0.279400X0.660400X-0.279400X0.660400X0.279400X-0.660400X0.279400X0*%
%ADD47RoundRect,0.200000X0.275000X-0.200000X0.275000X0.200000X-0.275000X0.200000X-0.275000X-0.200000X0*%
G04 APERTURE END LIST*
D10*
%TO.C,U2*%
X77180000Y61050000D03*
X77180000Y60550000D03*
X77180000Y60050000D03*
X77180000Y59550000D03*
X77180000Y59050000D03*
X77180000Y58550000D03*
X77180000Y58050000D03*
X77180000Y57550000D03*
X77180000Y57050000D03*
X77180000Y56550000D03*
X77180000Y56050000D03*
X77180000Y55550000D03*
D11*
X75750000Y54120000D03*
X75250000Y54120000D03*
X74750000Y54120000D03*
X74250000Y54120000D03*
X73750000Y54120000D03*
X73250000Y54120000D03*
X72750000Y54120000D03*
X72250000Y54120000D03*
X71750000Y54120000D03*
X71250000Y54120000D03*
X70750000Y54120000D03*
X70250000Y54120000D03*
D10*
X68820000Y55550000D03*
X68820000Y56050000D03*
X68820000Y56550000D03*
X68820000Y57050000D03*
X68820000Y57550000D03*
X68820000Y58050000D03*
X68820000Y58550000D03*
X68820000Y59050000D03*
X68820000Y59550000D03*
X68820000Y60050000D03*
X68820000Y60550000D03*
X68820000Y61050000D03*
D11*
X70250000Y62480000D03*
X70750000Y62480000D03*
X71250000Y62480000D03*
X71750000Y62480000D03*
X72250000Y62480000D03*
X72750000Y62480000D03*
X73250000Y62480000D03*
X73750000Y62480000D03*
X74250000Y62480000D03*
X74750000Y62480000D03*
X75250000Y62480000D03*
X75750000Y62480000D03*
%TD*%
D12*
%TO.C,R5*%
X10300000Y21968100D03*
D13*
X10300000Y50670100D03*
%TD*%
D14*
%TO.C,J9*%
X73850000Y72450000D03*
D15*
X71310000Y72450000D03*
X68770000Y72450000D03*
X66230000Y72450000D03*
X63690000Y72450000D03*
%TD*%
D14*
%TO.C,J8*%
X80530000Y72125000D03*
D15*
X83070000Y72125000D03*
X85610000Y72125000D03*
X88150000Y72125000D03*
%TD*%
D16*
%TO.C,J2*%
X20580000Y23479400D03*
D17*
X23120000Y23479400D03*
X25660000Y23479400D03*
X28200000Y23479400D03*
%TD*%
D18*
%TO.C,C5*%
X18700000Y50645600D03*
D19*
X18700000Y40145600D03*
%TD*%
D20*
%TO.C,REF\u002A\u002A*%
X157500000Y3800000D03*
%TD*%
D21*
%TO.C,TP1*%
X52450000Y72050000D03*
%TD*%
%TO.C,TP13*%
X90250000Y53250000D03*
%TD*%
%TO.C,TP2*%
X42200000Y68350000D03*
%TD*%
%TO.C,TP15*%
X90050000Y66100000D03*
%TD*%
D22*
%TO.C,LS1*%
X130288500Y33950000D03*
X130288500Y38950000D03*
%TD*%
D21*
%TO.C,TP16*%
X86800000Y66700000D03*
%TD*%
%TO.C,TP4*%
X97300000Y22000000D03*
%TD*%
D23*
%TO.C,J10*%
X43300000Y43000000D03*
D24*
X43300000Y45540000D03*
X43300000Y48080000D03*
%TD*%
D25*
%TO.C,DS1*%
X51892000Y66038500D03*
X51892000Y27438500D03*
X119850000Y66038500D03*
X119850000Y27438500D03*
D26*
X52336800Y39186300D03*
D27*
X52336800Y41726300D03*
X52336800Y44266300D03*
X52336800Y46806300D03*
X52336800Y49346300D03*
X52336800Y51886300D03*
X52336800Y54426300D03*
%TD*%
D20*
%TO.C,REF\u002A\u002A*%
X45500000Y3800000D03*
%TD*%
D21*
%TO.C,TP21*%
X156550000Y21600000D03*
%TD*%
D28*
%TO.C,J7*%
X44100000Y64712500D03*
X44100000Y56812500D03*
%TD*%
D29*
%TO.C,J1*%
X27700000Y60600000D03*
X27700000Y65600000D03*
%TD*%
D30*
%TO.C,MT2*%
X153650000Y34818500D03*
D24*
X153650000Y29818500D03*
X139150000Y34818500D03*
X139150000Y29818500D03*
X139150000Y32318500D03*
D31*
X146650000Y38018500D03*
X146650000Y26618500D03*
%TD*%
D21*
%TO.C,TP5*%
X126050000Y31200000D03*
%TD*%
D20*
%TO.C,REF\u002A\u002A*%
X35900000Y3800000D03*
%TD*%
%TO.C,REF\u002A\u002A*%
X35900000Y72300000D03*
%TD*%
D21*
%TO.C,TP17*%
X97650000Y14650000D03*
%TD*%
%TO.C,TP22*%
X156150000Y41050000D03*
%TD*%
D20*
%TO.C,REF\u002A\u002A*%
X3800000Y72300000D03*
%TD*%
D21*
%TO.C,TP8*%
X132900000Y23150000D03*
%TD*%
%TO.C,TP19*%
X139050000Y4000000D03*
%TD*%
D16*
%TO.C,J4*%
X52400000Y11660000D03*
D17*
X52400000Y14200000D03*
X52400000Y16740000D03*
X52400000Y19280000D03*
%TD*%
D32*
%TO.C,D1*%
X29075000Y43750000D03*
X29075000Y46300000D03*
D33*
X29075000Y48850000D03*
%TD*%
D29*
%TO.C,J3*%
X12300000Y65000000D03*
X12300000Y60000000D03*
%TD*%
D21*
%TO.C,TP11*%
X109650000Y4050000D03*
%TD*%
%TO.C,TP14*%
X88450000Y61700000D03*
%TD*%
D30*
%TO.C,J5*%
X52750000Y35340000D03*
D24*
X52750000Y32800000D03*
%TD*%
D20*
%TO.C,REF\u002A\u002A*%
X3800000Y3800000D03*
%TD*%
D21*
%TO.C,TP25*%
X46050000Y54000000D03*
%TD*%
D20*
%TO.C,REF\u002A\u002A*%
X45500000Y72300000D03*
%TD*%
D30*
%TO.C,MT1*%
X153650000Y17500000D03*
D24*
X153650000Y12500000D03*
X139150000Y17500000D03*
X139150000Y12500000D03*
X139150000Y15000000D03*
D31*
X146650000Y20700000D03*
X146650000Y9300000D03*
%TD*%
D34*
%TO.C,S7*%
X133337500Y12800000D03*
D22*
X133337500Y10260000D03*
X133337500Y15340000D03*
%TD*%
D21*
%TO.C,TP20*%
X144350000Y4000000D03*
%TD*%
%TO.C,TP12*%
X56300000Y5200000D03*
%TD*%
D34*
%TO.C,S8*%
X127600000Y12800000D03*
D22*
X127600000Y10260000D03*
X127600000Y15340000D03*
%TD*%
D35*
%TO.C,U3*%
X150350000Y66038500D03*
X150350000Y45738500D03*
D27*
X127750000Y47038500D03*
D26*
X127750000Y49538500D03*
D27*
X127750000Y52038500D03*
X127750000Y54624100D03*
X127750000Y57164100D03*
X127750000Y59704100D03*
X127750000Y62244100D03*
X127750000Y64738500D03*
%TD*%
D20*
%TO.C,REF\u002A\u002A*%
X157500000Y72300000D03*
%TD*%
D21*
%TO.C,TP23*%
X156550000Y25050000D03*
%TD*%
D36*
%TO.C,R25*%
X50650000Y62500000D03*
X52300000Y62500000D03*
%TD*%
D37*
%TO.C,C14*%
X56200000Y72400000D03*
X56200000Y70700000D03*
%TD*%
D38*
%TO.C,Y1*%
X80950000Y57550000D03*
X85050000Y57550000D03*
%TD*%
D39*
%TO.C,R17*%
X135575000Y40225000D03*
X135575000Y38575000D03*
%TD*%
D40*
%TO.C,R13*%
X136900000Y21600000D03*
X135250000Y21600000D03*
%TD*%
D41*
%TO.C,C8*%
X85600000Y63950000D03*
X83900000Y63950000D03*
%TD*%
D36*
%TO.C,R26*%
X50650000Y60750000D03*
X52300000Y60750000D03*
%TD*%
D42*
%TO.C,REF\u002A\u002A*%
X52150000Y58700000D03*
%TD*%
D43*
%TO.C,Y2*%
X81400000Y62900000D03*
X81400000Y60400000D03*
%TD*%
D44*
%TO.C,C20*%
X60700000Y71300000D03*
X60700000Y73000000D03*
%TD*%
D36*
%TO.C,R15*%
X134750000Y34200000D03*
X136400000Y34200000D03*
%TD*%
D41*
%TO.C,C1*%
X89250000Y56200000D03*
X87550000Y56200000D03*
%TD*%
%TO.C,C12*%
X63400000Y64300000D03*
X61700000Y64300000D03*
%TD*%
D39*
%TO.C,R27*%
X55950000Y61900000D03*
X55950000Y60250000D03*
%TD*%
D37*
%TO.C,C13*%
X58100000Y72350000D03*
X58100000Y70650000D03*
%TD*%
D45*
%TO.C,U4*%
X56860000Y65950000D03*
X56860000Y66890000D03*
X56860000Y67830000D03*
X59300000Y67830000D03*
X59300000Y65950000D03*
%TD*%
D46*
%TO.C,U5*%
X119168000Y37834000D03*
X119168000Y39866000D03*
X121200000Y38850000D03*
%TD*%
D42*
%TO.C,REF\u002A\u002A*%
X58700000Y61150000D03*
%TD*%
D47*
%TO.C,R19*%
X124300000Y13700000D03*
X124300000Y15350000D03*
%TD*%
D39*
%TO.C,R1*%
X91300000Y58325000D03*
X91300000Y56675000D03*
%TD*%
D40*
%TO.C,R16*%
X136400000Y36800000D03*
X134750000Y36800000D03*
%TD*%
D41*
%TO.C,C7*%
X85550000Y61150000D03*
X83850000Y61150000D03*
%TD*%
%TO.C,C10*%
X63400000Y69450000D03*
X61700000Y69450000D03*
%TD*%
D40*
%TO.C,R12*%
X136900000Y19300000D03*
X135250000Y19300000D03*
%TD*%
D41*
%TO.C,C2*%
X89250000Y58800000D03*
X87550000Y58800000D03*
%TD*%
D47*
%TO.C,R18*%
X124500000Y22300000D03*
X124500000Y23950000D03*
%TD*%
D41*
%TO.C,C11*%
X63400000Y66890000D03*
X61700000Y66890000D03*
%TD*%
M02*
